<svg width="34.000000" height="34.000000" viewBox="0 0 34 34" fill="none" xmlns="http://www.w3.org/2000/svg" xmlns:xlink="http://www.w3.org/1999/xlink">
	<desc>
			Created with Pixso.
	</desc>
	<defs/>
	<path id="LN" d="M14.9 16.42L14.9 18.58Q14.9 19.47 14.7 20.15Q14.5 20.83 14.11 21.29Q13.92 21.54 13.68 21.72Q13.45 21.89 13.18 22.01Q12.63 22.25 11.92 22.25Q11.21 22.25 10.65 22.01Q10.4 21.9 10.18 21.74Q9.92 21.55 9.71 21.29Q9.32 20.83 9.12 20.15Q8.92 19.47 8.92 18.58L8.92 16.42Q8.92 15.54 9.12 14.86Q9.32 14.17 9.71 13.7Q9.89 13.48 10.12 13.3Q10.36 13.11 10.65 12.99Q11.2 12.74 11.91 12.74Q12.62 12.74 13.17 12.99Q13.44 13.11 13.67 13.28Q13.91 13.46 14.11 13.7Q14.5 14.17 14.7 14.86Q14.9 15.54 14.9 16.42ZM21.71 12.88L21.71 22.12L20.54 22.12L20.54 14.38L18.12 15.3L18.12 14.22L21.61 12.88L21.71 12.88ZM10.1 18.03L10.1 18.35L13.7 15.59Q13.64 15.13 13.51 14.78Q13.38 14.43 13.16 14.19Q13.09 14.11 13.01 14.05Q12.84 13.91 12.63 13.83Q12.32 13.71 11.91 13.71Q11.49 13.71 11.17 13.84Q10.94 13.93 10.77 14.08Q10.69 14.14 10.62 14.22Q10.36 14.53 10.23 15.02Q10.1 15.51 10.1 16.16L10.1 18.03ZM13.58 20.01Q13.72 19.51 13.72 18.83L13.72 16.71L10.13 19.46Q10.18 19.92 10.33 20.28Q10.48 20.63 10.71 20.86Q10.75 20.9 10.79 20.93Q10.98 21.09 11.23 21.18Q11.54 21.29 11.92 21.29Q12.32 21.29 12.63 21.17Q12.88 21.08 13.07 20.91Q13.11 20.87 13.16 20.83Q13.45 20.51 13.58 20.01Z" fill="#191919" fill-opacity="1.000000" fill-rule="evenodd"/>
	<rect id="Badge" rx="16.500000" width="33.000000" height="33.000000" transform="translate(0.000000 0.125000)" stroke="#191919" stroke-opacity="1.000000" stroke-width="1.000000"/>
</svg>
