<svg width="34.000000" height="34.000000" viewBox="0 0 34 34" fill="none" xmlns="http://www.w3.org/2000/svg" xmlns:xlink="http://www.w3.org/1999/xlink">
	<desc>
			Created with Pixso.
	</desc>
	<defs/>
	<path id="LN" d="M14.9 16.42L14.9 18.58Q14.9 19.47 14.7 20.15Q14.5 20.83 14.11 21.29Q13.92 21.54 13.68 21.72Q13.45 21.89 13.18 22.01Q12.63 22.25 11.92 22.25Q11.21 22.25 10.65 22.01Q10.4 21.9 10.18 21.74Q9.92 21.55 9.71 21.29Q9.32 20.83 9.12 20.15Q8.92 19.47 8.92 18.58L8.92 16.42Q8.92 15.54 9.12 14.86Q9.32 14.17 9.71 13.7Q9.89 13.48 10.12 13.3Q10.36 13.11 10.65 12.99Q11.2 12.74 11.91 12.74Q12.62 12.74 13.17 12.99Q13.44 13.11 13.67 13.28Q13.91 13.46 14.11 13.7Q14.5 14.17 14.7 14.86Q14.9 15.54 14.9 16.42ZM19.27 17.89L19.27 16.93L20.11 16.93Q20.55 16.93 20.89 16.81Q21.23 16.69 21.47 16.48Q21.56 16.4 21.63 16.3Q21.74 16.16 21.82 15.98Q21.94 15.69 21.94 15.34Q21.94 14.93 21.83 14.62Q21.72 14.31 21.51 14.11Q21.31 13.91 21.01 13.81Q20.71 13.72 20.32 13.72Q19.94 13.72 19.64 13.83Q19.34 13.93 19.13 14.13Q19.12 14.14 19.11 14.15Q19.04 14.21 18.99 14.28Q18.85 14.45 18.77 14.65Q18.65 14.94 18.65 15.3L17.47 15.3Q17.47 14.94 17.57 14.61Q17.61 14.45 17.68 14.31Q17.77 14.09 17.91 13.89Q18.06 13.68 18.26 13.49Q18.63 13.15 19.15 12.95Q19.68 12.75 20.32 12.75Q20.94 12.75 21.46 12.92Q21.97 13.09 22.34 13.42Q22.4 13.47 22.45 13.53Q22.74 13.83 22.91 14.24Q23.11 14.73 23.11 15.37Q23.11 15.63 23.03 15.92Q22.95 16.2 22.78 16.47Q22.6 16.74 22.33 16.98Q22.06 17.22 21.69 17.38Q22.14 17.52 22.44 17.76Q22.74 17.99 22.93 18.29Q23.07 18.51 23.14 18.76Q23.16 18.83 23.18 18.9Q23.25 19.23 23.25 19.54Q23.25 20.19 23.03 20.69Q22.86 21.07 22.59 21.36Q22.51 21.45 22.41 21.54Q22.39 21.55 22.37 21.57Q21.99 21.89 21.48 22.07Q20.95 22.25 20.33 22.25Q19.72 22.25 19.18 22.08Q18.64 21.9 18.25 21.57Q18.12 21.47 18.01 21.34Q17.78 21.09 17.62 20.77Q17.39 20.29 17.39 19.68L18.57 19.68Q18.57 20.04 18.69 20.34Q18.78 20.56 18.92 20.73Q18.98 20.79 19.04 20.85Q19.27 21.06 19.6 21.17Q19.93 21.29 20.33 21.29Q20.73 21.29 21.05 21.18Q21.34 21.09 21.55 20.91Q21.58 20.89 21.6 20.86Q21.62 20.85 21.63 20.84Q21.84 20.63 21.95 20.33Q22.08 20.01 22.08 19.57Q22.08 19.14 21.93 18.82Q21.83 18.59 21.67 18.42Q21.61 18.36 21.54 18.3Q21.28 18.09 20.91 17.99Q20.55 17.89 20.11 17.89L19.27 17.89ZM10.1 18.03L10.1 18.35L13.7 15.59Q13.64 15.13 13.51 14.78Q13.38 14.43 13.16 14.19Q13.09 14.11 13.01 14.05Q12.84 13.91 12.63 13.83Q12.32 13.71 11.91 13.71Q11.49 13.71 11.17 13.84Q10.94 13.93 10.77 14.08Q10.69 14.14 10.62 14.22Q10.36 14.53 10.23 15.02Q10.1 15.51 10.1 16.16L10.1 18.03ZM13.58 20.01Q13.72 19.51 13.72 18.83L13.72 16.71L10.13 19.46Q10.18 19.92 10.33 20.28Q10.48 20.63 10.71 20.86Q10.75 20.9 10.79 20.93Q10.98 21.09 11.23 21.18Q11.54 21.29 11.92 21.29Q12.32 21.29 12.63 21.17Q12.88 21.08 13.07 20.91Q13.11 20.87 13.16 20.83Q13.45 20.51 13.58 20.01Z" fill="#191919" fill-opacity="1.000000" fill-rule="evenodd"/>
	<rect id="Badge" rx="16.500000" width="33.000000" height="33.000000" transform="translate(0.000000 0.125000)" stroke="#191919" stroke-opacity="1.000000" stroke-width="1.000000"/>
</svg>
