<svg width="100.000000" height="100.000000" viewBox="0 0 100 100" fill="none" xmlns="http://www.w3.org/2000/svg" xmlns:xlink="http://www.w3.org/1999/xlink">
	<desc>
			Created with Pixso.
	</desc>
	<defs/>
	<path id="Vector" d="M99.53 49.16C96.31 49.17 93.12 48.86 89.95 48.24C86.79 47.61 83.72 46.68 80.74 45.45C77.76 44.22 74.94 42.7 72.26 40.91C69.58 39.11 67.1 37.07 64.83 34.79C62.54 32.51 60.5 30.04 58.71 27.36C56.91 24.68 55.4 21.85 54.17 18.88C52.93 15.9 52.01 12.83 51.38 9.66C50.76 6.5 50.45 3.3 50.46 0.08C50.46 -0.04 50.41 -0.15 50.32 -0.24C50.23 -0.33 50.12 -0.38 50 -0.38C49.87 -0.38 49.76 -0.33 49.67 -0.24C49.58 -0.15 49.53 -0.04 49.53 0.08C49.54 3.3 49.23 6.5 48.61 9.66C47.99 12.83 47.06 15.9 45.82 18.88C44.59 21.85 43.08 24.68 41.28 27.36C39.49 30.04 37.45 32.51 35.16 34.79C32.89 37.07 30.41 39.11 27.73 40.91C25.05 42.7 22.23 44.22 19.25 45.45C16.27 46.68 13.2 47.61 10.04 48.24C6.87 48.86 3.68 49.17 0.46 49.16C0.33 49.16 0.22 49.21 0.13 49.29C0.04 49.39 0 49.5 0 49.62C0 49.75 0.04 49.86 0.13 49.95C0.22 50.04 0.33 50.08 0.46 50.08C3.68 50.07 6.87 50.38 10.04 51.01C13.2 51.63 16.27 52.56 19.25 53.79C22.23 55.03 25.05 56.54 27.73 58.34C30.41 60.13 32.89 62.17 35.16 64.46C37.45 66.73 39.49 69.21 41.28 71.88C43.08 74.56 44.59 77.39 45.82 80.37C47.06 83.35 47.99 86.42 48.61 89.58C49.23 92.74 49.54 95.94 49.53 99.16C49.53 99.29 49.58 99.4 49.67 99.49C49.76 99.58 49.87 99.62 50 99.62C50.12 99.62 50.23 99.58 50.32 99.49C50.41 99.4 50.46 99.29 50.46 99.16C50.46 72.1 72.47 50.08 99.53 50.08C99.66 50.08 99.77 50.04 99.86 49.95C99.95 49.86 100 49.75 100 49.62C100 49.5 99.95 49.39 99.86 49.29C99.77 49.21 99.66 49.16 99.53 49.16ZM50 92.34C49.63 89.65 49.05 87.02 48.26 84.43C47.46 81.84 46.46 79.33 45.26 76.9C44.05 74.48 42.65 72.16 41.07 69.97C39.48 67.77 37.73 65.71 35.81 63.8C33.9 61.88 31.85 60.13 29.65 58.55C27.46 56.96 25.15 55.57 22.72 54.36C20.3 53.16 17.79 52.16 15.2 51.36C12.62 50.57 9.98 49.98 7.29 49.62C9.98 49.26 12.62 48.68 15.2 47.88C17.79 47.09 20.3 46.09 22.72 44.88C25.15 43.67 27.46 42.28 29.65 40.69C31.85 39.11 33.9 37.36 35.81 35.44C37.73 33.53 39.48 31.47 41.07 29.28C42.65 27.08 44.05 24.77 45.25 22.35C46.46 19.92 47.46 17.42 48.26 14.83C49.05 12.24 49.63 9.6 50 6.92C50.36 9.6 50.94 12.24 51.73 14.83C52.53 17.42 53.53 19.92 54.74 22.35C55.94 24.77 57.34 27.08 58.92 29.28C60.51 31.47 62.26 33.53 64.18 35.44C66.09 37.36 68.14 39.11 70.34 40.7C72.54 42.28 74.85 43.68 77.28 44.88C79.7 46.09 82.21 47.09 84.8 47.88C87.39 48.68 90.03 49.26 92.71 49.62C70.59 52.66 53.03 70.22 50 92.34Z" fill="#191919" fill-opacity="1.000000" fill-rule="nonzero"/>
</svg>
