<svg width="134.000000" height="34.000000" viewBox="0 0 134 34" fill="none" xmlns="http://www.w3.org/2000/svg" xmlns:xlink="http://www.w3.org/1999/xlink">
	<desc>
			Created with Pixso.
	</desc>
	<defs/>
	<path id="LN" d="M10.93 13.25L10.93 21.5L15.45 21.5L15.45 22.5L9.75 22.5L9.75 13.25L10.93 13.25ZM24.19 13.25L24.19 22.5L23 22.5L19.41 15.59L19.39 22.5L18.2 22.5L18.2 13.25L19.4 13.25L22.98 20.15L23 13.25L24.19 13.25Z" fill="#191919" fill-opacity="1.000000" fill-rule="evenodd"/>
	<rect id="Badge" rx="16.500000" width="33.000000" height="33.000000" transform="translate(0.500000 0.500000)" stroke="#191919" stroke-opacity="1.000000" stroke-width="1.000000"/>
	<path id="LN" d="M59.6 14.27L59.6 13.25L65.19 13.25L65.19 14.27L62.97 14.27L62.97 21.48L65.19 21.48L65.19 22.5L59.6 22.5L59.6 21.48L61.76 21.48L61.76 14.27L59.6 14.27ZM74.19 13.25L74.19 22.5L73 22.5L69.41 15.59L69.39 22.5L68.2 22.5L68.2 13.25L69.4 13.25L72.98 20.15L73 13.25L74.19 13.25Z" fill="#191919" fill-opacity="1.000000" fill-rule="evenodd"/>
	<rect id="Badge" rx="16.500000" width="33.000000" height="33.000000" transform="translate(50.500000 0.500000)" stroke="#191919" stroke-opacity="1.000000" stroke-width="1.000000"/>
	<path id="LN" d="M114.74 17.42L114.74 18.41L110.89 18.41L110.89 22.5L109.71 22.5L109.71 13.25L115.38 13.25L115.38 14.26L110.89 14.26L110.89 17.42L114.74 17.42ZM121.35 22.5L118.39 22.5L118.39 13.25L121.14 13.25Q121.54 13.26 121.93 13.33Q122.09 13.36 122.25 13.4Q122.8 13.54 123.23 13.84Q123.4 13.97 123.55 14.12Q123.76 14.34 123.9 14.6Q124.16 15.07 124.15 15.72Q124.15 16.08 124.03 16.38Q123.93 16.67 123.74 16.9Q123.74 16.9 123.73 16.91Q123.54 17.15 123.3 17.32Q123.06 17.48 122.72 17.63L122.72 17.65Q123.07 17.73 123.4 17.94Q123.72 18.16 123.93 18.42Q123.96 18.46 123.99 18.5Q124.17 18.75 124.28 19.06Q124.4 19.42 124.4 19.83Q124.41 20.48 124.15 20.97Q123.98 21.31 123.73 21.56Q123.61 21.69 123.47 21.8Q123.05 22.13 122.49 22.31Q122.29 22.38 122.09 22.42Q121.72 22.49 121.35 22.5ZM119.57 14.26L119.57 17.19L121.21 17.19Q121.34 17.19 121.48 17.17Q121.67 17.15 121.85 17.09Q122.17 16.99 122.41 16.81Q122.41 16.8 122.42 16.8Q122.52 16.72 122.61 16.63Q122.73 16.5 122.82 16.34Q122.97 16.07 122.97 15.71Q122.97 15.32 122.82 15.05Q122.73 14.88 122.61 14.75Q122.52 14.67 122.43 14.6Q122.17 14.43 121.84 14.34Q121.79 14.33 121.73 14.32Q121.46 14.26 121.18 14.26L119.57 14.26ZM121.44 18.17L119.57 18.17L119.57 21.5L121.38 21.5Q121.73 21.49 122.05 21.38Q122.07 21.38 122.08 21.37Q122.41 21.26 122.66 21.05Q122.74 20.98 122.82 20.9Q122.96 20.74 123.06 20.53Q123.21 20.23 123.21 19.84Q123.22 19.45 123.08 19.14Q122.99 18.94 122.85 18.77Q122.78 18.69 122.7 18.62L122.7 18.62Q122.46 18.41 122.14 18.3Q121.82 18.18 121.44 18.17Z" fill="#191919" fill-opacity="1.000000" fill-rule="evenodd"/>
	<rect id="Badge" rx="16.500000" width="33.000000" height="33.000000" transform="translate(100.500000 0.500000)" stroke="#191919" stroke-opacity="1.000000" stroke-width="1.000000"/>
</svg>
