<svg width="60.000000" height="61.000000" viewBox="0 0 60 61" fill="none" xmlns="http://www.w3.org/2000/svg" xmlns:xlink="http://www.w3.org/1999/xlink">
	<desc>
			Created with Pixso.
	</desc>
	<defs/>
	<path id="Vector" d="M59.84 29.05C59.74 29.01 59.66 29.03 59.58 29.1L50.31 38.37L50.31 19.59C50.31 19.48 50.26 19.41 50.16 19.37C50.06 19.33 49.97 19.34 49.89 19.42L40.63 28.69L40.63 9.91C40.62 9.81 40.57 9.74 40.47 9.7C40.38 9.66 40.29 9.68 40.22 9.75L30.95 19.02L30.95 0.24C30.95 0.13 30.9 0.06 30.8 0.02C30.7 -0.02 30.62 -0.01 30.54 0.07L0.07 30.55C-0.01 30.63 -0.02 30.72 0.02 30.81C0.06 30.91 0.13 30.96 0.24 30.96L19 30.96L9.75 40.23C9.67 40.31 9.65 40.4 9.69 40.5C9.74 40.6 9.81 40.65 9.92 40.65L28.68 40.65L19.42 49.91C19.35 49.99 19.33 50.08 19.37 50.18C19.41 50.28 19.49 50.33 19.6 50.33L38.36 50.33L29.1 59.6C29.03 59.67 29.01 59.76 29.05 59.86C29.09 59.96 29.17 60.01 29.27 60.01L59.75 60.01C59.82 60.01 59.88 59.99 59.92 59.94C59.97 59.89 59.99 59.84 59.99 59.77L59.99 29.29C60 29.17 59.95 29.09 59.84 29.05ZM0.83 30.48L30.47 0.83L30.47 19.5L19.49 30.48L0.83 30.48ZM30.47 20.18L30.47 30.48L20.18 30.48L30.47 20.18ZM10.51 40.16L19.69 30.96L30.71 30.96C30.78 30.96 30.84 30.94 30.89 30.89C30.93 30.85 30.96 30.79 30.96 30.72L30.96 19.7L40.15 10.5L40.15 29.18L29.17 40.16L10.51 40.16ZM40.15 29.87L40.15 40.16L29.86 40.16L40.15 29.87ZM20.18 49.84L29.37 40.65L40.39 40.65C40.46 40.65 40.52 40.62 40.57 40.58C40.61 40.53 40.64 40.47 40.64 40.4L40.64 29.38L49.83 20.18L49.83 38.86L38.85 49.84L20.18 49.84ZM49.83 39.55L49.83 49.84L39.54 49.84L49.83 39.55ZM59.51 59.52L29.87 59.52L39.06 50.33L50.07 50.33C50.14 50.33 50.2 50.3 50.25 50.26C50.29 50.21 50.32 50.15 50.32 50.08L50.32 39.06L59.51 29.87L59.51 59.52Z" fill="#191919" fill-opacity="1.000000" fill-rule="nonzero"/>
</svg>
