<svg width="60.000000" height="61.000000" viewBox="0 0 60 61" fill="none" xmlns="http://www.w3.org/2000/svg" xmlns:xlink="http://www.w3.org/1999/xlink">
	<desc>
			Created with Pixso.
	</desc>
	<defs/>
	<path id="Vector" d="M30 60C13.45 60 0 46.54 0 30C0 13.46 13.45 0 30 0C46.54 0 60 13.45 60 30C60 46.54 46.54 60 30 60ZM30 0.58C13.78 0.58 0.58 13.78 0.58 30C0.58 46.21 13.78 59.41 30 59.41C46.21 59.41 59.41 46.21 59.41 30C59.41 13.78 46.21 0.58 30 0.58ZM30 53.94C16.79 53.94 6.06 43.2 6.06 30C6.06 16.8 16.79 6.06 30 6.06C43.2 6.06 53.93 16.8 53.93 30C53.93 43.2 43.19 53.94 30 53.94ZM30 6.65C17.12 6.65 6.65 17.12 6.65 30C6.65 42.87 17.12 53.35 30 53.35C42.87 53.35 53.35 42.87 53.35 30C53.35 17.12 42.87 6.65 30 6.65ZM30 47.87C29.41 47.87 28.83 47.84 28.24 47.79C27.66 47.73 27.08 47.64 26.51 47.53C25.93 47.41 25.37 47.27 24.81 47.1C24.25 46.93 23.7 46.74 23.15 46.51C22.61 46.29 22.08 46.04 21.57 45.76C21.05 45.49 20.55 45.18 20.06 44.86C19.58 44.54 19.11 44.19 18.65 43.81C18.2 43.44 17.77 43.05 17.35 42.64C16.94 42.22 16.55 41.79 16.18 41.34C15.8 40.89 15.46 40.41 15.13 39.93C14.81 39.44 14.51 38.94 14.23 38.42C13.95 37.91 13.7 37.38 13.48 36.84C13.25 36.3 13.06 35.75 12.89 35.19C12.72 34.62 12.58 34.06 12.46 33.48C12.35 32.91 12.26 32.33 12.2 31.75C12.15 31.17 12.12 30.58 12.12 30C12.12 29.41 12.15 28.83 12.2 28.24C12.26 27.66 12.35 27.08 12.46 26.51C12.58 25.93 12.72 25.37 12.89 24.81C13.06 24.25 13.25 23.7 13.48 23.15C13.7 22.61 13.95 22.08 14.23 21.57C14.5 21.05 14.81 20.55 15.13 20.06C15.46 19.58 15.8 19.11 16.18 18.66C16.55 18.2 16.94 17.77 17.35 17.35C17.77 16.94 18.2 16.55 18.65 16.18C19.1 15.81 19.58 15.46 20.06 15.13C20.55 14.81 21.05 14.51 21.57 14.23C22.08 13.95 22.61 13.7 23.15 13.48C23.69 13.26 24.24 13.06 24.8 12.89C25.37 12.72 25.93 12.58 26.51 12.46C27.08 12.35 27.66 12.26 28.24 12.21C28.82 12.15 29.41 12.12 29.99 12.12C30.58 12.12 31.16 12.15 31.75 12.21C32.33 12.26 32.91 12.35 33.48 12.46C34.06 12.58 34.62 12.72 35.18 12.89C35.74 13.06 36.29 13.26 36.84 13.48C37.38 13.7 37.91 13.95 38.42 14.23C38.94 14.51 39.44 14.81 39.93 15.13C40.41 15.46 40.88 15.81 41.33 16.18C41.79 16.55 42.22 16.94 42.64 17.35C43.05 17.77 43.44 18.2 43.81 18.66C44.18 19.11 44.53 19.58 44.86 20.06C45.18 20.55 45.48 21.05 45.76 21.57C46.04 22.09 46.29 22.61 46.51 23.15C46.73 23.7 46.93 24.25 47.1 24.81C47.27 25.37 47.41 25.93 47.53 26.51C47.64 27.08 47.73 27.66 47.78 28.25C47.84 28.83 47.87 29.41 47.87 30C47.87 30.58 47.84 31.17 47.78 31.75C47.73 32.33 47.64 32.91 47.52 33.48C47.41 34.06 47.27 34.62 47.1 35.18C46.93 35.74 46.73 36.29 46.51 36.84C46.28 37.38 46.03 37.9 45.75 38.42C45.48 38.93 45.18 39.44 44.85 39.92C44.53 40.41 44.18 40.88 43.81 41.33C43.44 41.78 43.04 42.22 42.63 42.63C42.22 43.04 41.78 43.44 41.33 43.81C40.88 44.18 40.41 44.53 39.92 44.85C39.43 45.18 38.93 45.48 38.42 45.76C37.9 46.03 37.37 46.28 36.83 46.51C36.29 46.73 35.74 46.93 35.18 47.1C34.62 47.27 34.06 47.41 33.48 47.53C32.91 47.64 32.33 47.73 31.75 47.78C31.17 47.84 30.58 47.87 30 47.87ZM30 12.71C29.43 12.71 28.86 12.74 28.3 12.79C27.74 12.85 27.18 12.93 26.62 13.04C26.07 13.15 25.52 13.29 24.98 13.45C24.43 13.62 23.9 13.81 23.38 14.03C22.86 14.24 22.35 14.48 21.85 14.75C21.35 15.02 20.86 15.31 20.39 15.62C19.92 15.94 19.47 16.27 19.03 16.63C18.59 16.99 18.17 17.37 17.77 17.77C17.37 18.17 16.99 18.59 16.63 19.03C16.27 19.47 15.93 19.92 15.62 20.39C15.31 20.86 15.01 21.35 14.75 21.85C14.48 22.35 14.24 22.86 14.02 23.38C13.81 23.9 13.61 24.44 13.45 24.98C13.29 25.52 13.15 26.07 13.04 26.62C12.93 27.18 12.84 27.74 12.79 28.3C12.73 28.87 12.71 29.43 12.71 30C12.71 30.56 12.73 31.13 12.79 31.69C12.84 32.26 12.93 32.82 13.04 33.37C13.15 33.92 13.29 34.47 13.45 35.02C13.61 35.56 13.81 36.09 14.02 36.61C14.24 37.14 14.48 37.65 14.75 38.15C15.01 38.65 15.31 39.13 15.62 39.6C15.93 40.07 16.27 40.53 16.63 40.96C16.99 41.4 17.37 41.82 17.77 42.22C18.17 42.62 18.59 43 19.03 43.36C19.46 43.72 19.92 44.06 20.39 44.37C20.86 44.69 21.35 44.98 21.84 45.24C22.34 45.51 22.85 45.75 23.38 45.97C23.9 46.19 24.43 46.38 24.98 46.54C25.52 46.71 26.07 46.84 26.62 46.95C27.18 47.06 27.74 47.15 28.3 47.2C28.86 47.26 29.43 47.28 29.99 47.28C30.56 47.28 31.12 47.26 31.69 47.2C32.25 47.15 32.81 47.06 33.37 46.95C33.92 46.84 34.47 46.71 35.01 46.54C35.55 46.38 36.09 46.19 36.61 45.97C37.13 45.75 37.64 45.51 38.14 45.24C38.64 44.98 39.13 44.69 39.6 44.37C40.07 44.06 40.52 43.72 40.96 43.36C41.4 43 41.82 42.62 42.22 42.22C42.62 41.82 43 41.4 43.36 40.96C43.72 40.53 44.05 40.07 44.37 39.6C44.68 39.13 44.97 38.65 45.24 38.15C45.51 37.65 45.75 37.14 45.97 36.61C46.18 36.09 46.37 35.56 46.54 35.02C46.7 34.47 46.84 33.92 46.95 33.37C47.06 32.82 47.14 32.26 47.2 31.69C47.26 31.13 47.28 30.56 47.28 30C47.28 29.43 47.25 28.87 47.2 28.3C47.14 27.74 47.06 27.18 46.95 26.63C46.84 26.07 46.7 25.52 46.53 24.98C46.37 24.44 46.18 23.91 45.96 23.38C45.74 22.86 45.5 22.35 45.23 21.85C44.97 21.35 44.68 20.87 44.36 20.4C44.05 19.93 43.71 19.47 43.35 19.04C42.99 18.6 42.61 18.18 42.21 17.78C41.81 17.38 41.39 17 40.96 16.64C40.52 16.28 40.07 15.94 39.59 15.63C39.12 15.31 38.64 15.02 38.14 14.76C37.64 14.49 37.13 14.25 36.61 14.03C36.09 13.81 35.55 13.62 35.01 13.46C34.47 13.29 33.92 13.16 33.37 13.04C32.81 12.93 32.25 12.85 31.69 12.79C31.13 12.74 30.56 12.71 30 12.71ZM30 41.81C29.61 41.81 29.22 41.79 28.84 41.75C28.45 41.71 28.07 41.66 27.69 41.58C27.31 41.51 26.94 41.41 26.57 41.3C26.2 41.19 25.83 41.06 25.48 40.91C25.12 40.76 24.77 40.6 24.43 40.41C24.08 40.23 23.75 40.03 23.43 39.82C23.11 39.6 22.8 39.37 22.5 39.13C22.2 38.88 21.91 38.62 21.64 38.35C21.37 38.08 21.11 37.79 20.86 37.49C20.62 37.19 20.39 36.88 20.17 36.56C19.96 36.24 19.76 35.91 19.58 35.56C19.39 35.22 19.23 34.87 19.08 34.52C18.93 34.16 18.8 33.79 18.69 33.42C18.58 33.05 18.48 32.68 18.41 32.3C18.33 31.92 18.28 31.54 18.24 31.15C18.2 30.77 18.18 30.38 18.18 30C18.18 29.61 18.2 29.22 18.24 28.84C18.28 28.45 18.33 28.07 18.41 27.69C18.48 27.31 18.58 26.94 18.69 26.57C18.8 26.2 18.93 25.83 19.08 25.48C19.23 25.12 19.39 24.77 19.58 24.43C19.76 24.09 19.96 23.75 20.17 23.43C20.39 23.11 20.62 22.8 20.86 22.5C21.11 22.2 21.37 21.92 21.64 21.64C21.91 21.37 22.2 21.11 22.5 20.86C22.8 20.62 23.11 20.39 23.43 20.17C23.75 19.96 24.08 19.76 24.43 19.58C24.77 19.39 25.12 19.23 25.47 19.08C25.83 18.93 26.19 18.8 26.56 18.69C26.93 18.58 27.31 18.48 27.69 18.41C28.07 18.33 28.45 18.28 28.84 18.24C29.22 18.2 29.61 18.18 29.99 18.18C30.38 18.18 30.77 18.2 31.15 18.24C31.54 18.28 31.92 18.33 32.3 18.41C32.68 18.48 33.05 18.58 33.42 18.69C33.79 18.8 34.16 18.93 34.52 19.08C34.87 19.23 35.22 19.39 35.56 19.58C35.9 19.76 36.24 19.96 36.56 20.17C36.88 20.39 37.19 20.62 37.49 20.86C37.79 21.11 38.07 21.37 38.35 21.64C38.62 21.92 38.88 22.2 39.13 22.5C39.37 22.8 39.6 23.11 39.82 23.43C40.03 23.75 40.23 24.09 40.41 24.43C40.6 24.77 40.76 25.12 40.91 25.48C41.06 25.83 41.19 26.2 41.3 26.57C41.41 26.94 41.51 27.31 41.58 27.69C41.66 28.07 41.71 28.45 41.75 28.84C41.79 29.22 41.81 29.61 41.81 30C41.81 30.38 41.79 30.77 41.75 31.15C41.71 31.54 41.66 31.92 41.58 32.3C41.5 32.68 41.41 33.05 41.3 33.42C41.18 33.79 41.05 34.16 40.91 34.52C40.76 34.87 40.59 35.22 40.41 35.56C40.23 35.9 40.03 36.24 39.81 36.56C39.6 36.88 39.37 37.19 39.12 37.49C38.88 37.79 38.62 38.07 38.34 38.35C38.07 38.62 37.79 38.88 37.49 39.12C37.19 39.37 36.88 39.6 36.56 39.81C36.23 40.03 35.9 40.23 35.56 40.41C35.22 40.59 34.87 40.76 34.51 40.91C34.16 41.06 33.79 41.18 33.42 41.3C33.05 41.41 32.68 41.51 32.3 41.58C31.92 41.66 31.54 41.71 31.15 41.75C30.77 41.79 30.38 41.81 30 41.81ZM30 18.77C29.63 18.77 29.26 18.79 28.89 18.83C28.53 18.86 28.17 18.92 27.81 18.99C27.45 19.06 27.09 19.15 26.74 19.25C26.38 19.36 26.04 19.49 25.7 19.63C25.36 19.77 25.03 19.92 24.7 20.1C24.38 20.27 24.06 20.46 23.76 20.66C23.45 20.87 23.16 21.09 22.87 21.32C22.59 21.55 22.32 21.8 22.06 22.06C21.8 22.32 21.55 22.59 21.32 22.88C21.08 23.16 20.87 23.45 20.66 23.76C20.46 24.07 20.27 24.38 20.1 24.71C19.92 25.03 19.76 25.36 19.62 25.7C19.48 26.04 19.36 26.39 19.25 26.74C19.15 27.09 19.06 27.45 18.98 27.81C18.91 28.17 18.86 28.53 18.82 28.9C18.79 29.26 18.77 29.63 18.77 30C18.77 30.37 18.79 30.73 18.82 31.1C18.86 31.46 18.91 31.83 18.98 32.19C19.06 32.55 19.15 32.9 19.25 33.26C19.36 33.61 19.48 33.95 19.62 34.29C19.76 34.63 19.92 34.97 20.09 35.29C20.27 35.61 20.46 35.93 20.66 36.23C20.87 36.54 21.08 36.83 21.32 37.12C21.55 37.4 21.8 37.67 22.06 37.93C22.32 38.19 22.59 38.44 22.87 38.67C23.16 38.91 23.45 39.13 23.76 39.33C24.06 39.54 24.38 39.72 24.7 39.9C25.03 40.07 25.36 40.23 25.7 40.37C26.04 40.51 26.38 40.63 26.74 40.74C27.09 40.85 27.44 40.93 27.8 41.01C28.17 41.08 28.53 41.13 28.89 41.17C29.26 41.2 29.63 41.22 29.99 41.22C30.36 41.22 30.73 41.2 31.1 41.17C31.46 41.13 31.82 41.08 32.18 41.01C32.54 40.93 32.9 40.85 33.25 40.74C33.6 40.63 33.95 40.51 34.29 40.37C34.63 40.23 34.96 40.07 35.29 39.9C35.61 39.72 35.92 39.54 36.23 39.33C36.54 39.13 36.83 38.91 37.12 38.67C37.4 38.44 37.67 38.19 37.93 37.94C38.19 37.67 38.44 37.4 38.67 37.12C38.9 36.83 39.12 36.54 39.33 36.23C39.53 35.93 39.72 35.61 39.89 35.29C40.07 34.97 40.22 34.63 40.36 34.29C40.51 33.95 40.63 33.61 40.74 33.26C40.84 32.9 40.93 32.55 41 32.19C41.08 31.83 41.13 31.46 41.16 31.1C41.2 30.73 41.22 30.37 41.22 30C41.22 29.63 41.2 29.26 41.16 28.9C41.13 28.53 41.07 28.17 41 27.81C40.93 27.45 40.84 27.09 40.73 26.74C40.63 26.39 40.5 26.04 40.36 25.7C40.22 25.36 40.06 25.03 39.89 24.71C39.72 24.38 39.53 24.07 39.32 23.76C39.12 23.46 38.9 23.16 38.67 22.88C38.44 22.6 38.19 22.32 37.93 22.06C37.67 21.8 37.4 21.56 37.11 21.32C36.83 21.09 36.53 20.87 36.23 20.67C35.92 20.46 35.61 20.28 35.28 20.1C34.96 19.93 34.63 19.77 34.29 19.63C33.95 19.49 33.6 19.37 33.25 19.26C32.9 19.15 32.54 19.06 32.18 18.99C31.82 18.92 31.46 18.86 31.1 18.83C30.73 18.79 30.36 18.77 30 18.77ZM30 35.75C29.62 35.75 29.24 35.71 28.87 35.64C28.5 35.56 28.14 35.45 27.8 35.31C27.45 35.16 27.11 34.99 26.8 34.78C26.49 34.57 26.2 34.33 25.93 34.06C25.66 33.8 25.42 33.51 25.21 33.19C25 32.88 24.83 32.55 24.68 32.2C24.54 31.85 24.43 31.49 24.35 31.12C24.28 30.75 24.25 30.37 24.25 30C24.25 29.62 24.28 29.25 24.35 28.87C24.43 28.5 24.54 28.14 24.68 27.8C24.83 27.45 25 27.12 25.21 26.8C25.42 26.49 25.66 26.2 25.93 25.93C26.2 25.66 26.49 25.42 26.8 25.22C27.11 25.01 27.45 24.83 27.8 24.68C28.14 24.54 28.5 24.43 28.87 24.36C29.24 24.28 29.62 24.25 30 24.25C30.37 24.25 30.75 24.28 31.12 24.36C31.49 24.43 31.85 24.54 32.2 24.68C32.54 24.83 32.88 25.01 33.19 25.22C33.5 25.42 33.79 25.66 34.06 25.93C34.33 26.2 34.57 26.49 34.78 26.8C34.99 27.12 35.16 27.45 35.31 27.8C35.45 28.14 35.56 28.5 35.64 28.87C35.71 29.25 35.75 29.62 35.75 30C35.75 30.37 35.71 30.75 35.64 31.12C35.56 31.49 35.45 31.85 35.31 32.2C35.16 32.55 34.99 32.88 34.78 33.19C34.57 33.5 34.33 33.79 34.06 34.06C33.79 34.33 33.5 34.57 33.19 34.78C32.88 34.99 32.54 35.16 32.19 35.31C31.85 35.45 31.49 35.56 31.12 35.64C30.75 35.71 30.37 35.75 30 35.75ZM30 24.84C29.66 24.84 29.32 24.87 28.99 24.93C28.66 25 28.33 25.1 28.02 25.23C27.71 25.36 27.41 25.52 27.13 25.7C26.85 25.89 26.59 26.11 26.35 26.35C26.11 26.59 25.89 26.85 25.7 27.13C25.52 27.41 25.36 27.71 25.23 28.02C25.1 28.33 25 28.66 24.93 28.99C24.87 29.32 24.83 29.66 24.83 30C24.83 30.34 24.87 30.67 24.93 31C25 31.34 25.1 31.66 25.23 31.97C25.36 32.29 25.52 32.58 25.7 32.87C25.89 33.15 26.11 33.41 26.35 33.65C26.59 33.89 26.85 34.1 27.13 34.29C27.41 34.48 27.71 34.64 28.02 34.77C28.33 34.9 28.66 34.99 28.99 35.06C29.32 35.13 29.66 35.16 30 35.16C30.33 35.16 30.67 35.13 31 35.06C31.34 34.99 31.66 34.9 31.97 34.77C32.28 34.64 32.58 34.48 32.86 34.29C33.14 34.1 33.41 33.89 33.65 33.65C33.89 33.41 34.1 33.15 34.29 32.87C34.48 32.58 34.64 32.29 34.77 31.97C34.89 31.66 34.99 31.34 35.06 31C35.12 30.67 35.16 30.34 35.16 30C35.16 29.66 35.12 29.32 35.06 28.99C34.99 28.66 34.89 28.34 34.76 28.02C34.63 27.71 34.47 27.41 34.29 27.13C34.1 26.85 33.88 26.59 33.64 26.35C33.4 26.11 33.14 25.9 32.86 25.71C32.58 25.52 32.28 25.36 31.97 25.23C31.66 25.1 31.33 25 31 24.94C30.67 24.87 30.33 24.84 30 24.84Z" fill="#191919" fill-opacity="1.000000" fill-rule="nonzero"/>
</svg>
