<svg width="60.000000" height="59.000000" viewBox="0 0 60 59" fill="none" xmlns="http://www.w3.org/2000/svg" xmlns:xlink="http://www.w3.org/1999/xlink">
	<desc>
			Created with Pixso.
	</desc>
	<defs/>
	<path id="Vector" d="M60 23.37C60 10.48 49.52 0 36.64 0C35.74 0 34.85 0.05 33.96 0.15C33.07 0.25 32.19 0.4 31.32 0.61C30.45 0.81 29.59 1.07 28.75 1.37C27.91 1.67 27.09 2.02 26.29 2.42C25.49 2.81 24.71 3.26 23.96 3.74C23.21 4.23 22.49 4.76 21.8 5.33C21.11 5.89 20.45 6.5 19.83 7.15C19.21 7.79 18.63 8.47 18.09 9.18C15.49 10.72 13.28 12.69 11.45 15.09C10.58 15.61 9.75 16.17 8.95 16.8C8.16 17.42 7.41 18.09 6.7 18.81C5.99 19.53 5.33 20.29 4.72 21.1C4.12 21.9 3.56 22.75 3.06 23.62C2.56 24.5 2.12 25.41 1.74 26.34C1.36 27.27 1.04 28.23 0.78 29.21C0.52 30.18 0.32 31.17 0.19 32.17C0.06 33.17 0 34.18 0 35.19C0 48.07 10.48 58.56 23.35 58.56C24.25 58.56 25.14 58.51 26.03 58.4C26.92 58.3 27.8 58.15 28.67 57.94C29.54 57.74 30.4 57.49 31.24 57.18C32.08 56.88 32.9 56.53 33.7 56.14C34.5 55.74 35.28 55.3 36.03 54.81C36.78 54.32 37.5 53.8 38.19 53.23C38.88 52.66 39.54 52.05 40.16 51.41C40.78 50.76 41.36 50.08 41.9 49.37C44.5 47.83 46.71 45.86 48.54 43.46C49.41 42.95 50.24 42.38 51.04 41.76C51.83 41.13 52.58 40.46 53.29 39.74C54 39.02 54.66 38.26 55.27 37.46C55.87 36.65 56.43 35.81 56.93 34.93C57.43 34.05 57.87 33.15 58.25 32.21C58.63 31.28 58.96 30.32 59.21 29.35C59.47 28.37 59.67 27.38 59.8 26.38C59.93 25.38 59.99 24.37 60 23.37ZM17.2 10.41C16.62 11.28 16.1 12.19 15.64 13.13C14.66 13.47 13.7 13.88 12.77 14.36C14.08 12.85 15.56 11.54 17.2 10.41ZM36.63 46.17C24.06 46.17 13.84 35.94 13.84 23.36C13.84 21.67 14.02 20 14.4 18.35C14.77 16.7 15.32 15.11 16.05 13.59C18.42 12.78 20.85 12.38 23.35 12.39C35.92 12.39 46.15 22.61 46.15 35.19C46.15 36.88 45.96 38.55 45.59 40.2C45.22 41.85 44.67 43.44 43.94 44.97C41.57 45.77 39.14 46.17 36.64 46.17L36.63 46.17ZM43.58 45.68C42.98 46.82 42.29 47.91 41.51 48.94C39.77 49.97 37.92 50.75 35.96 51.28C34 51.81 32.01 52.08 29.99 52.08C17.42 52.08 7.2 41.85 7.2 29.27C7.19 28.04 7.29 26.81 7.49 25.6C7.69 24.38 7.98 23.19 8.38 22.02C8.77 20.85 9.26 19.72 9.83 18.63C10.41 17.54 11.07 16.5 11.82 15.52C12.93 14.87 14.09 14.31 15.29 13.86C13.94 16.88 13.27 20.05 13.27 23.36C13.27 36.25 23.75 46.73 36.63 46.73C39 46.74 41.32 46.38 43.58 45.68L43.58 45.68ZM46.71 35.18C46.71 22.3 36.23 11.81 23.35 11.81C20.98 11.81 18.66 12.16 16.4 12.87C17 11.73 17.68 10.64 18.46 9.61C20.21 8.58 22.06 7.8 24.02 7.27C25.97 6.73 27.96 6.47 29.99 6.47C42.55 6.47 52.78 16.7 52.78 29.27C52.78 30.5 52.68 31.73 52.48 32.95C52.29 34.17 51.99 35.36 51.6 36.53C51.2 37.7 50.72 38.83 50.14 39.92C49.56 41.01 48.9 42.04 48.15 43.03C47.04 43.68 45.89 44.23 44.68 44.69C46.04 41.67 46.71 38.5 46.71 35.19L46.71 35.18ZM23.35 57.99C10.79 57.99 0.56 47.76 0.56 35.19C0.56 34.26 0.62 33.34 0.73 32.42C0.84 31.5 1.01 30.59 1.24 29.69C1.46 28.79 1.74 27.91 2.07 27.04C2.4 26.17 2.78 25.33 3.22 24.51C3.65 23.69 4.13 22.9 4.66 22.14C5.19 21.38 5.77 20.66 6.39 19.97C7.01 19.28 7.67 18.63 8.36 18.02C9.06 17.41 9.79 16.85 10.56 16.33C9.28 18.24 8.3 20.3 7.63 22.51C6.97 24.71 6.63 26.97 6.64 29.28C6.64 42.16 17.12 52.65 30 52.65C31.83 52.65 33.65 52.43 35.44 52.01C37.23 51.58 38.94 50.94 40.58 50.11C40.04 50.72 39.48 51.31 38.88 51.87C38.29 52.42 37.67 52.95 37.02 53.43C36.36 53.92 35.69 54.38 34.99 54.79C34.29 55.21 33.57 55.59 32.83 55.93C32.08 56.27 31.33 56.56 30.56 56.82C29.78 57.08 29 57.3 28.2 57.47C27.41 57.64 26.6 57.77 25.79 57.86C24.98 57.95 24.17 57.99 23.35 57.99ZM42.78 48.14C43.36 47.27 43.88 46.36 44.34 45.42C45.33 45.08 46.28 44.67 47.22 44.2C45.91 45.7 44.43 47.02 42.79 48.14L42.78 48.14ZM49.42 42.23C50.7 40.31 51.68 38.25 52.35 36.04C53.02 33.84 53.35 31.58 53.35 29.28C53.35 16.39 42.87 5.91 29.99 5.91C28.15 5.9 26.33 6.12 24.55 6.55C22.76 6.98 21.04 7.61 19.41 8.44C19.94 7.83 20.5 7.24 21.1 6.68C21.7 6.13 22.32 5.61 22.97 5.12C23.62 4.63 24.3 4.17 25 3.76C25.7 3.34 26.42 2.96 27.16 2.62C27.9 2.29 28.66 1.99 29.43 1.73C30.21 1.47 30.99 1.26 31.79 1.08C32.58 0.91 33.39 0.78 34.2 0.69C35.01 0.6 35.82 0.56 36.64 0.56C49.2 0.56 59.43 10.79 59.43 23.37C59.43 24.29 59.37 25.22 59.26 26.14C59.15 27.06 58.98 27.97 58.75 28.87C58.53 29.77 58.25 30.65 57.92 31.51C57.59 32.38 57.21 33.22 56.77 34.04C56.34 34.86 55.86 35.65 55.33 36.41C54.8 37.17 54.22 37.89 53.6 38.58C52.98 39.27 52.32 39.92 51.63 40.53C50.93 41.14 50.2 41.71 49.43 42.23L49.42 42.23Z" fill="#191919" fill-opacity="1.000000" fill-rule="nonzero"/>
</svg>
